<?xml version="1.0" encoding="UTF-8" standalone="no"?>
<!-- Created with Inkscape (http://www.inkscape.org/) -->

<svg
   version="1.1"
   id="svg1"
   width="880"
   height="880"
   viewBox="0 0 880 880"
   sodipodi:docname="teal-flower.svg"
   inkscape:version="1.3.2 (091e20e, 2023-11-25, custom)"
   xmlns:inkscape="http://www.inkscape.org/namespaces/inkscape"
   xmlns:sodipodi="http://sodipodi.sourceforge.net/DTD/sodipodi-0.dtd"
   xmlns="http://www.w3.org/2000/svg"
   xmlns:svg="http://www.w3.org/2000/svg">
  <defs
     id="defs1">
    <clipPath
       clipPathUnits="userSpaceOnUse"
       id="clipPath4">
      <path
         d="M 0,660 H 660 V 0 H 0 Z"
         transform="translate(-451.83691,-590.23051)"
         id="path4" />
    </clipPath>
    <clipPath
       clipPathUnits="userSpaceOnUse"
       id="clipPath6">
      <path
         d="M 0,660 H 660 V 0 H 0 Z"
         transform="translate(-451.83691,-590.23051)"
         id="path6" />
    </clipPath>
    <clipPath
       clipPathUnits="userSpaceOnUse"
       id="clipPath8">
      <path
         d="M 0,660 H 660 V 0 H 0 Z"
         transform="translate(-266.45311,-612.53612)"
         id="path8" />
    </clipPath>
    <clipPath
       clipPathUnits="userSpaceOnUse"
       id="clipPath10">
      <path
         d="M 0,660 H 660 V 0 H 0 Z"
         transform="translate(-266.45311,-612.53612)"
         id="path10" />
    </clipPath>
    <clipPath
       clipPathUnits="userSpaceOnUse"
       id="clipPath12">
      <path
         d="M 0,660 H 660 V 0 H 0 Z"
         transform="translate(-150.6279,-533.56792)"
         id="path12" />
    </clipPath>
    <clipPath
       clipPathUnits="userSpaceOnUse"
       id="clipPath14">
      <path
         d="M 0,660 H 660 V 0 H 0 Z"
         transform="translate(-150.6279,-533.56792)"
         id="path14" />
    </clipPath>
    <clipPath
       clipPathUnits="userSpaceOnUse"
       id="clipPath16">
      <path
         d="M 0,660 H 660 V 0 H 0 Z"
         transform="translate(-75.298802,-432.48731)"
         id="path16" />
    </clipPath>
    <clipPath
       clipPathUnits="userSpaceOnUse"
       id="clipPath18">
      <path
         d="M 0,660 H 660 V 0 H 0 Z"
         transform="translate(-75.298802,-432.48731)"
         id="path18" />
    </clipPath>
    <clipPath
       clipPathUnits="userSpaceOnUse"
       id="clipPath20">
      <path
         d="M 0,660 H 660 V 0 H 0 Z"
         transform="translate(-88.7383,-249.3037)"
         id="path20" />
    </clipPath>
    <clipPath
       clipPathUnits="userSpaceOnUse"
       id="clipPath22">
      <path
         d="M 0,660 H 660 V 0 H 0 Z"
         transform="translate(-88.7383,-249.3037)"
         id="path22" />
    </clipPath>
    <clipPath
       clipPathUnits="userSpaceOnUse"
       id="clipPath24">
      <path
         d="M 0,660 H 660 V 0 H 0 Z"
         transform="translate(-232.2163,-74.191404)"
         id="path24" />
    </clipPath>
    <clipPath
       clipPathUnits="userSpaceOnUse"
       id="clipPath26">
      <path
         d="M 0,660 H 660 V 0 H 0 Z"
         transform="translate(-232.2163,-74.191404)"
         id="path26" />
    </clipPath>
    <clipPath
       clipPathUnits="userSpaceOnUse"
       id="clipPath28">
      <path
         d="M 0,660 H 660 V 0 H 0 Z"
         transform="translate(-431.79391,-90.861302)"
         id="path28" />
    </clipPath>
    <clipPath
       clipPathUnits="userSpaceOnUse"
       id="clipPath30">
      <path
         d="M 0,660 H 660 V 0 H 0 Z"
         transform="translate(-431.79391,-90.861302)"
         id="path30" />
    </clipPath>
    <clipPath
       clipPathUnits="userSpaceOnUse"
       id="clipPath32">
      <path
         d="M 0,660 H 660 V 0 H 0 Z"
         transform="translate(-612.76271,-251.83401)"
         id="path32" />
    </clipPath>
    <clipPath
       clipPathUnits="userSpaceOnUse"
       id="clipPath34">
      <path
         d="M 0,660 H 660 V 0 H 0 Z"
         transform="translate(-612.76271,-251.83401)"
         id="path34" />
    </clipPath>
    <clipPath
       clipPathUnits="userSpaceOnUse"
       id="clipPath36">
      <path
         d="M 0,660 H 660 V 0 H 0 Z"
         transform="translate(-603.72461,-416.66941)"
         id="path36" />
    </clipPath>
    <clipPath
       clipPathUnits="userSpaceOnUse"
       id="clipPath38">
      <path
         d="M 0,660 H 660 V 0 H 0 Z"
         transform="translate(-603.72461,-416.66941)"
         id="path38" />
    </clipPath>
    <clipPath
       clipPathUnits="userSpaceOnUse"
       id="clipPath40">
      <path
         d="M 0,660 H 660 V 0 H 0 Z"
         transform="translate(-347.21971,-613.91652)"
         id="path40" />
    </clipPath>
    <clipPath
       clipPathUnits="userSpaceOnUse"
       id="clipPath42">
      <path
         d="M 0,660 H 660 V 0 H 0 Z"
         transform="translate(-347.21971,-613.91652)"
         id="path42" />
    </clipPath>
    <clipPath
       clipPathUnits="userSpaceOnUse"
       id="clipPath44">
      <path
         d="M 0,660 H 660 V 0 H 0 Z"
         transform="translate(-549.33791,-512.16112)"
         id="path44" />
    </clipPath>
    <clipPath
       clipPathUnits="userSpaceOnUse"
       id="clipPath46">
      <path
         d="M 0,660 H 660 V 0 H 0 Z"
         transform="translate(-549.33791,-512.16112)"
         id="path46" />
    </clipPath>
    <clipPath
       clipPathUnits="userSpaceOnUse"
       id="clipPath48">
      <path
         d="M 0,660 H 660 V 0 H 0 Z"
         transform="translate(-615.09382,-319.01271)"
         id="path48" />
    </clipPath>
    <clipPath
       clipPathUnits="userSpaceOnUse"
       id="clipPath50">
      <path
         d="M 0,660 H 660 V 0 H 0 Z"
         transform="translate(-615.09382,-319.01271)"
         id="path50" />
    </clipPath>
    <clipPath
       clipPathUnits="userSpaceOnUse"
       id="clipPath52">
      <path
         d="M 0,660 H 660 V 0 H 0 Z"
         transform="translate(-489.16311,-121.8535)"
         id="path52" />
    </clipPath>
    <clipPath
       clipPathUnits="userSpaceOnUse"
       id="clipPath54">
      <path
         d="M 0,660 H 660 V 0 H 0 Z"
         transform="translate(-489.16311,-121.8535)"
         id="path54" />
    </clipPath>
    <clipPath
       clipPathUnits="userSpaceOnUse"
       id="clipPath56">
      <path
         d="M 0,660 H 660 V 0 H 0 Z"
         transform="translate(-321.45171,-44.628901)"
         id="path56" />
    </clipPath>
    <clipPath
       clipPathUnits="userSpaceOnUse"
       id="clipPath58">
      <path
         d="M 0,660 H 660 V 0 H 0 Z"
         transform="translate(-321.45171,-44.628901)"
         id="path58" />
    </clipPath>
    <clipPath
       clipPathUnits="userSpaceOnUse"
       id="clipPath60">
      <path
         d="M 0,660 H 660 V 0 H 0 Z"
         transform="translate(-134.3359,-180.5889)"
         id="path60" />
    </clipPath>
    <clipPath
       clipPathUnits="userSpaceOnUse"
       id="clipPath62">
      <path
         d="M 0,660 H 660 V 0 H 0 Z"
         transform="translate(-134.3359,-180.5889)"
         id="path62" />
    </clipPath>
    <clipPath
       clipPathUnits="userSpaceOnUse"
       id="clipPath64">
      <path
         d="M 0,660 H 660 V 0 H 0 Z"
         transform="translate(-44.740701,-346.20261)"
         id="path64" />
    </clipPath>
    <clipPath
       clipPathUnits="userSpaceOnUse"
       id="clipPath66">
      <path
         d="M 0,660 H 660 V 0 H 0 Z"
         transform="translate(-44.740701,-346.20261)"
         id="path66" />
    </clipPath>
    <clipPath
       clipPathUnits="userSpaceOnUse"
       id="clipPath68">
      <path
         d="M 0,660 H 660 V 0 H 0 Z"
         transform="translate(-199.5952,-575.56492)"
         id="path68" />
    </clipPath>
    <clipPath
       clipPathUnits="userSpaceOnUse"
       id="clipPath70">
      <path
         d="M 0,660 H 660 V 0 H 0 Z"
         transform="translate(-199.5952,-575.56492)"
         id="path70" />
    </clipPath>
    <clipPath
       clipPathUnits="userSpaceOnUse"
       id="clipPath72">
      <path
         d="M 0,660 H 660 V 0 H 0 Z"
         transform="translate(-122.686,-461.68601)"
         id="path72" />
    </clipPath>
    <clipPath
       clipPathUnits="userSpaceOnUse"
       id="clipPath74">
      <path
         d="M 0,660 H 660 V 0 H 0 Z"
         transform="translate(-122.686,-461.68601)"
         id="path74" />
    </clipPath>
    <clipPath
       clipPathUnits="userSpaceOnUse"
       id="clipPath76">
      <path
         d="M 0,660 H 660 V 0 H 0 Z"
         transform="translate(-554.50591,-198.0498)"
         id="path76" />
    </clipPath>
    <clipPath
       clipPathUnits="userSpaceOnUse"
       id="clipPath78">
      <path
         d="M 0,660 H 660 V 0 H 0 Z"
         transform="translate(-554.50591,-198.0498)"
         id="path78" />
    </clipPath>
    <clipPath
       clipPathUnits="userSpaceOnUse"
       id="clipPath80">
      <path
         d="M 0,660 H 660 V 0 H 0 Z"
         transform="translate(-206.7793,-113.959)"
         id="path80" />
    </clipPath>
    <clipPath
       clipPathUnits="userSpaceOnUse"
       id="clipPath82">
      <path
         d="M 0,660 H 660 V 0 H 0 Z"
         transform="translate(-206.7793,-113.959)"
         id="path82" />
    </clipPath>
    <clipPath
       clipPathUnits="userSpaceOnUse"
       id="clipPath84">
      <path
         d="M 0,660 H 660 V 0 H 0 Z"
         transform="translate(-470.41501,-545.77831)"
         id="path84" />
    </clipPath>
    <clipPath
       clipPathUnits="userSpaceOnUse"
       id="clipPath86">
      <path
         d="M 0,660 H 660 V 0 H 0 Z"
         transform="translate(-470.41501,-545.77831)"
         id="path86" />
    </clipPath>
    <clipPath
       clipPathUnits="userSpaceOnUse"
       id="clipPath88">
      <path
         d="M 0,660 H 660 V 0 H 0 Z"
         transform="translate(-288.1084,-538.64111)"
         id="path88" />
    </clipPath>
    <clipPath
       clipPathUnits="userSpaceOnUse"
       id="clipPath90">
      <path
         d="M 0,660 H 660 V 0 H 0 Z"
         transform="translate(-288.1084,-538.64111)"
         id="path90" />
    </clipPath>
    <clipPath
       clipPathUnits="userSpaceOnUse"
       id="clipPath92">
      <path
         d="M 0,660 H 660 V 0 H 0 Z"
         transform="translate(-389.08501,-121.0957)"
         id="path92" />
    </clipPath>
    <clipPath
       clipPathUnits="userSpaceOnUse"
       id="clipPath94">
      <path
         d="M 0,660 H 660 V 0 H 0 Z"
         transform="translate(-389.08501,-121.0957)"
         id="path94" />
    </clipPath>
    <clipPath
       clipPathUnits="userSpaceOnUse"
       id="clipPath96">
      <path
         d="M 0,660 H 660 V 0 H 0 Z"
         transform="translate(-129.8232,-279.38091)"
         id="path96" />
    </clipPath>
    <clipPath
       clipPathUnits="userSpaceOnUse"
       id="clipPath98">
      <path
         d="M 0,660 H 660 V 0 H 0 Z"
         transform="translate(-129.8232,-279.38091)"
         id="path98" />
    </clipPath>
    <clipPath
       clipPathUnits="userSpaceOnUse"
       id="clipPath100">
      <path
         d="M 0,660 H 660 V 0 H 0 Z"
         transform="translate(-547.36912,-380.35551)"
         id="path100" />
    </clipPath>
    <clipPath
       clipPathUnits="userSpaceOnUse"
       id="clipPath102">
      <path
         d="M 0,660 H 660 V 0 H 0 Z"
         transform="translate(-547.36912,-380.35551)"
         id="path102" />
    </clipPath>
  </defs>
  <sodipodi:namedview
     id="namedview1"
     pagecolor="#ffffff"
     bordercolor="#000000"
     borderopacity="0.25"
     inkscape:showpageshadow="2"
     inkscape:pageopacity="0.0"
     inkscape:pagecheckerboard="0"
     inkscape:deskcolor="#d1d1d1"
     inkscape:zoom="0.69318182"
     inkscape:cx="439.27869"
     inkscape:cy="440"
     inkscape:window-width="1440"
     inkscape:window-height="830"
     inkscape:window-x="-6"
     inkscape:window-y="-6"
     inkscape:window-maximized="1"
     inkscape:current-layer="g1">
    <inkscape:page
       x="0"
       y="0"
       inkscape:label="1"
       id="page1"
       width="880"
       height="880"
       margin="0 0 0.85866666"
       bleed="0" />
  </sodipodi:namedview>
  <g
     id="g1"
     inkscape:groupmode="layer"
     inkscape:label="1">
    <g
       id="group-MC0">
      <path
         id="path2"
         d="M 0,0 H 660 V 659.356 H 0 Z"
         style="fill:#173237;fill-opacity:1;fill-rule:nonzero;stroke:none"
         transform="matrix(1.3333333,0,0,-1.3333333,0,880)" />
      <path
         id="path3"
         d="m 0,0 c 10.572,-22.999 8.935,-50.853 -6.73,-73.009 -15.665,-22.155 -41.378,-32.987 -66.587,-30.687 -10.575,23 -8.936,50.854 6.73,73.009 C -50.923,-8.532 -25.209,2.3 0,0"
         style="fill:#276974;fill-opacity:1;fill-rule:evenodd;stroke:none"
         transform="matrix(1.3333333,0,0,-1.3333333,602.4492,93.026)"
         clip-path="url(#clipPath4)" />
      <path
         id="path5"
         d="m 0,0 c 0.148,-0.322 0.292,-0.646 0.436,-0.971 l -15.594,-22.057 21.005,3.606 c 0.093,-0.605 0.179,-1.21 0.26,-1.817 l -22.763,-3.906 -22.122,-31.291 43.185,7.413 c -0.168,-0.653 -0.345,-1.304 -0.531,-1.952 l -44.152,-7.578 -23.827,-33.698 47.799,8.203 c -0.836,-0.789 -1.687,-1.555 -2.553,-2.299 l -46.743,-8.022 -6.656,-9.415 c -0.354,0.027 -0.708,0.056 -1.061,0.088 -0.149,0.322 -0.292,0.646 -0.438,0.971 l 6.657,9.415 -8.022,46.743 c 0.413,1.065 0.852,2.123 1.316,3.173 l 8.203,-47.798 23.827,33.698 -7.578,44.153 c 0.549,0.393 1.104,0.775 1.663,1.152 l 7.413,-43.187 22.123,31.29 -3.907,22.762 c 0.597,0.127 1.197,0.248 1.798,0.36 l 3.606,-21.004 15.595,22.056 C -0.708,0.061 -0.354,0.032 0,0"
         style="fill:#3b9fa7;fill-opacity:1;fill-rule:evenodd;stroke:none"
         transform="matrix(1.3333333,0,0,-1.3333333,602.4492,93.026)"
         clip-path="url(#clipPath6)" />
      <path
         id="path7"
         d="m 0,0 c 24.603,-5.957 45.446,-24.506 53.123,-50.531 7.678,-26.026 0.241,-52.918 -17.187,-71.276 -24.604,5.957 -45.447,24.508 -53.125,50.533 C -24.866,-45.25 -17.43,-18.357 0,0"
         style="fill:#276974;fill-opacity:1;fill-rule:evenodd;stroke:none"
         transform="matrix(1.3333333,0,0,-1.3333333,355.2708,63.2852)"
         clip-path="url(#clipPath8)" />
      <path
         id="path9"
         d="m 0,0 c 0.345,-0.083 0.689,-0.17 1.033,-0.258 l 7.643,-25.91 10.19,18.719 c 0.533,-0.301 1.062,-0.609 1.587,-0.922 L 9.41,-28.655 20.253,-65.41 41.204,-26.925 c 0.406,-0.536 0.81,-1.078 1.203,-1.626 l -21.42,-39.347 11.678,-39.583 23.187,42.594 c 0.103,-1.144 0.175,-2.287 0.222,-3.428 l -22.675,-41.654 3.264,-11.06 c -0.243,-0.26 -0.484,-0.521 -0.727,-0.778 -0.347,0.084 -0.69,0.17 -1.034,0.26 l -3.263,11.059 -41.653,22.675 c -0.581,0.985 -1.14,1.984 -1.675,3 L 30.905,-108 l -11.677,39.583 -39.345,21.42 c 0.031,0.674 0.074,1.347 0.125,2.018 l 38.487,-20.95 -10.844,36.755 -20.284,11.042 c 0.271,0.549 0.547,1.093 0.832,1.635 L 6.918,-26.686 -0.727,-0.778 C -0.486,-0.517 -0.244,-0.257 0,0"
         style="fill:#3b9fa7;fill-opacity:1;fill-rule:evenodd;stroke:none"
         transform="matrix(1.3333333,0,0,-1.3333333,355.2708,63.2852)"
         clip-path="url(#clipPath10)" />
      <path
         id="path11"
         d="m 0,0 c 25.225,4.473 52.079,-4.253 69.768,-25.256 17.689,-21.003 21.72,-48.951 13.023,-73.046 -25.223,-4.473 -52.08,4.253 -69.768,25.256 C -4.665,-52.043 -8.697,-24.096 0,0"
         style="fill:#276974;fill-opacity:1;fill-rule:evenodd;stroke:none"
         transform="matrix(1.3333333,0,0,-1.3333333,200.8372,168.57613)"
         clip-path="url(#clipPath12)" />
      <path
         id="path13"
         d="m 0,0 c 0.354,0.062 0.708,0.122 1.062,0.179 l 17.61,-20.909 1.842,21.489 c 0.615,-0.062 1.231,-0.132 1.843,-0.21 L 20.362,-22.737 45.345,-52.4 49.128,-8.218 c 0.596,-0.332 1.189,-0.67 1.776,-1.019 l -3.867,-45.171 26.903,-31.945 4.188,48.9 c 0.559,-1.02 1.092,-2.049 1.599,-3.088 l -4.095,-47.819 7.515,-8.926 c -0.116,-0.34 -0.235,-0.679 -0.356,-1.016 -0.353,-0.063 -0.708,-0.123 -1.063,-0.18 l -7.517,8.926 -47.82,4.096 c -0.937,0.676 -1.862,1.376 -2.771,2.099 l 48.901,-4.188 -26.905,31.946 -45.17,3.869 c -0.245,0.638 -0.479,1.28 -0.703,1.922 l 44.181,-3.784 -24.981,29.663 -23.287,1.994 c 0.028,0.619 0.064,1.236 0.107,1.853 l 21.49,-1.84 -17.611,20.91 C -0.241,-0.676 -0.121,-0.338 0,0"
         style="fill:#3b9fa7;fill-opacity:1;fill-rule:evenodd;stroke:none"
         transform="matrix(1.3333333,0,0,-1.3333333,200.8372,168.57613)"
         clip-path="url(#clipPath14)" />
      <path
         id="path15"
         d="M 0,0 C 22.062,13.019 50.273,14.244 74.195,0.76 98.116,-12.723 111.673,-37.491 111.96,-63.107 89.897,-76.126 61.687,-77.351 37.766,-63.869 13.844,-50.385 0.287,-25.616 0,0"
         style="fill:#276974;fill-opacity:1;fill-rule:evenodd;stroke:none"
         transform="matrix(1.3333333,0,0,-1.3333333,100.3984,303.35027)"
         clip-path="url(#clipPath16)" />
      <path
         id="path17"
         d="M 0,0 C 0.309,0.183 0.621,0.363 0.932,0.54 L 24.748,-12.883 18.95,7.891 c 0.598,0.157 1.199,0.307 1.801,0.449 L 27.033,-14.172 60.817,-33.214 48.899,9.497 C 49.572,9.395 50.245,9.286 50.918,9.165 L 63.104,-34.503 99.488,-55.012 86.295,-7.738 c 0.88,-0.76 1.741,-1.538 2.579,-2.333 l 12.899,-46.229 10.167,-5.73 c 0.009,-0.36 0.017,-0.719 0.02,-1.077 -0.309,-0.183 -0.622,-0.363 -0.932,-0.541 l -10.166,5.73 -46.229,-12.899 c -1.114,0.305 -2.225,0.637 -3.331,0.997 l 47.274,13.191 -36.384,20.508 -43.668,-12.185 c -0.452,0.512 -0.895,1.032 -1.331,1.555 L 59.906,-34.832 26.122,-15.789 3.61,-22.071 c -0.19,0.589 -0.374,1.18 -0.549,1.773 L 23.836,-14.501 0.021,-1.077 C 0.011,-0.717 0.004,-0.358 0,0"
         style="fill:#3b9fa7;fill-opacity:1;fill-rule:evenodd;stroke:none"
         transform="matrix(1.3333333,0,0,-1.3333333,100.3984,303.35027)"
         clip-path="url(#clipPath18)" />
      <path
         id="path19"
         d="M 0,0 C 4.283,22.562 20.147,42.288 43.381,50.425 66.615,58.562 91.32,53.041 108.744,38.08 104.46,15.517 88.596,-4.21 65.362,-12.346 42.129,-20.482 17.424,-14.962 0,0"
         style="fill:#276974;fill-opacity:1;fill-rule:evenodd;stroke:none"
         transform="matrix(1.3333333,0,0,-1.3333333,118.31773,547.59507)"
         clip-path="url(#clipPath20)" />
      <path
         id="path21"
         d="m 0,0 c 0.06,0.315 0.124,0.631 0.189,0.947 l 23.129,8.1 -17.422,8.386 c 0.248,0.495 0.502,0.988 0.763,1.478 l 18.88,-9.087 32.812,11.49 -35.82,17.241 c 0.467,0.392 0.939,0.782 1.419,1.162 L 60.573,22.092 95.911,34.468 56.264,53.549 c 1.033,0.142 2.064,0.262 3.096,0.356 l 38.771,-18.66 9.875,3.457 c 0.247,-0.205 0.493,-0.413 0.738,-0.622 -0.06,-0.316 -0.124,-0.632 -0.188,-0.948 L 98.682,33.675 80.022,-5.095 C 79.157,-5.665 78.276,-6.218 77.38,-6.749 L 96.461,32.896 61.123,20.521 43.497,-16.101 c -0.613,-0.001 -1.224,0.007 -1.835,0.025 L 58.901,19.744 26.089,8.254 17.002,-10.627 c -0.509,0.221 -1.016,0.447 -1.519,0.681 l 8.385,17.423 -23.13,-8.1 C 0.491,-0.418 0.244,-0.21 0,0"
         style="fill:#3b9fa7;fill-opacity:1;fill-rule:evenodd;stroke:none"
         transform="matrix(1.3333333,0,0,-1.3333333,118.31773,547.59507)"
         clip-path="url(#clipPath22)" />
      <path
         id="path23"
         d="M 0,0 C -11.577,21.975 -11.446,49.35 2.729,71.886 16.904,94.42 41.523,106.393 66.342,105.474 77.919,83.501 77.788,56.124 63.613,33.59 49.438,11.054 24.819,-0.919 0,0"
         style="fill:#276974;fill-opacity:1;fill-rule:evenodd;stroke:none"
         transform="matrix(1.3333333,0,0,-1.3333333,309.62173,781.07813)"
         clip-path="url(#clipPath24)" />
      <path
         id="path25"
         d="M 0,0 C -0.163,0.31 -0.322,0.618 -0.479,0.928 L 13.632,23.363 -6.756,18.72 c -0.124,0.587 -0.241,1.175 -0.351,1.765 l 22.093,5.032 20.019,31.827 -41.92,-9.548 c 0.132,0.648 0.27,1.296 0.419,1.941 L 36.36,59.497 57.92,93.774 11.524,83.207 c 0.777,0.817 1.571,1.613 2.38,2.388 l 45.369,10.333 6.026,9.576 c 0.347,-0.007 0.695,-0.018 1.043,-0.03 0.162,-0.308 0.322,-0.618 0.479,-0.928 L 60.798,94.97 71.13,49.599 C 70.782,48.534 70.409,47.475 70.01,46.42 L 59.443,92.815 37.884,58.54 47.645,15.683 C 47.127,15.27 46.604,14.864 46.076,14.467 L 36.528,56.387 16.511,24.56 21.542,2.465 C 20.962,2.309 20.381,2.159 19.8,2.017 L 15.155,22.404 1.043,-0.03 C 0.695,-0.021 0.348,-0.013 0,0"
         style="fill:#3b9fa7;fill-opacity:1;fill-rule:evenodd;stroke:none"
         transform="matrix(1.3333333,0,0,-1.3333333,309.62173,781.07813)"
         clip-path="url(#clipPath26)" />
      <path
         id="path27"
         d="M 0,0 C -24.829,0.608 -48.666,14.072 -61.429,37.437 -74.19,60.8 -72.64,88.133 -59.734,109.354 -34.904,108.745 -11.068,95.281 1.694,71.917 14.457,48.554 12.905,21.221 0,0"
         style="fill:#276974;fill-opacity:1;fill-rule:evenodd;stroke:none"
         transform="matrix(1.3333333,0,0,-1.3333333,575.7252,758.8516)"
         clip-path="url(#clipPath28)" />
      <path
         id="path29"
         d="M 0,0 C -0.35,0.009 -0.697,0.021 -1.045,0.034 L -13.751,23.294 -19.639,3.23 c -0.573,0.177 -1.143,0.363 -1.711,0.555 L -14.971,25.527 -32.995,58.524 -45.1,17.271 c -0.502,0.43 -1,0.866 -1.49,1.311 l 12.375,42.176 -19.412,35.536 -13.398,-45.657 c -0.333,1.076 -0.641,2.157 -0.923,3.24 l 13.101,44.65 -5.424,9.928 c 0.177,0.301 0.357,0.601 0.537,0.899 0.347,-0.009 0.697,-0.021 1.045,-0.035 l 5.423,-9.928 44.65,-13.104 c 0.76,-0.822 1.503,-1.666 2.227,-2.529 L -52.046,97.157 -32.634,61.621 9.54,49.244 C 9.65,48.591 9.747,47.937 9.838,47.282 L -31.414,59.388 -13.391,26.391 8.352,20.011 C 8.206,19.428 8.054,18.848 7.893,18.27 L -12.17,24.158 0.535,0.896 C 0.358,0.598 0.181,0.298 0,0"
         style="fill:#3b9fa7;fill-opacity:1;fill-rule:evenodd;stroke:none"
         transform="matrix(1.3333333,0,0,-1.3333333,575.7252,758.8516)"
         clip-path="url(#clipPath30)" />
      <path
         id="path31"
         d="m 0,0 c -15.456,-19.441 -40.57,-30.341 -66.903,-26.435 -26.335,3.907 -47.204,21.623 -56.353,44.714 15.456,19.441 40.568,30.34 66.903,26.435 C -30.02,40.81 -9.149,23.09 0,0"
         style="fill:#276974;fill-opacity:1;fill-rule:evenodd;stroke:none"
         transform="matrix(1.3333333,0,0,-1.3333333,817.01693,544.22133)"
         clip-path="url(#clipPath32)" />
      <path
         id="path33"
         d="m 0,0 c -0.217,-0.273 -0.437,-0.543 -0.657,-0.812 l -26.217,3.889 12.456,-16.796 c -0.487,-0.35 -0.978,-0.694 -1.475,-1.032 l -13.499,18.2 -37.191,5.516 25.611,-34.531 c -0.645,-0.142 -1.293,-0.276 -1.944,-0.4 l -26.186,35.305 -40.053,5.939 28.347,-38.218 c -1.062,0.381 -2.109,0.788 -3.143,1.218 l -27.721,37.373 -11.19,1.66 c -0.135,0.322 -0.266,0.643 -0.394,0.968 0.217,0.273 0.436,0.542 0.657,0.813 l 11.191,-1.66 37.374,27.721 c 1.115,0.109 2.235,0.194 3.361,0.252 l -38.219,-28.347 40.056,-5.94 35.303,26.185 c 0.587,-0.307 1.167,-0.623 1.744,-0.946 l -34.53,-25.612 37.192,-5.516 18.199,13.5 c 0.376,-0.466 0.747,-0.94 1.112,-1.416 L -26.61,4.855 -0.394,0.968 C -0.26,0.645 -0.129,0.323 0,0"
         style="fill:#3b9fa7;fill-opacity:1;fill-rule:evenodd;stroke:none"
         transform="matrix(1.3333333,0,0,-1.3333333,817.01693,544.22133)"
         clip-path="url(#clipPath34)" />
      <path
         id="path35"
         d="m 0,0 c -8.11,-31.452 -32.302,-57.841 -65.836,-67.198 -33.533,-9.357 -67.894,0.693 -91.115,23.403 8.108,31.449 32.301,57.838 65.835,67.196 C -57.584,32.758 -23.223,22.708 0,0"
         style="fill:#276974;fill-opacity:1;fill-rule:evenodd;stroke:none"
         transform="matrix(1.3333333,0,0,-1.3333333,804.96613,324.4408)"
         clip-path="url(#clipPath36)" />
      <path
         id="path37"
         d="m 0,0 c -0.115,-0.441 -0.232,-0.881 -0.352,-1.32 l -33.384,-9.316 23.821,-13.427 c -0.397,-0.677 -0.802,-1.35 -1.213,-2.018 l -25.813,14.551 -47.361,-13.216 48.978,-27.606 c -0.696,-0.513 -1.398,-1.017 -2.111,-1.513 l -50.072,28.224 -51.004,-14.231 54.208,-30.555 c -1.47,-0.108 -2.938,-0.181 -4.404,-0.22 l -53.009,29.88 -14.25,-3.978 c -0.331,0.314 -0.66,0.63 -0.985,0.95 0.114,0.44 0.232,0.88 0.352,1.319 l 14.25,3.976 29.881,53.009 c 1.273,0.726 2.566,1.424 3.879,2.093 l -30.555,-54.207 51.004,14.232 28.225,50.073 c 0.865,-0.055 1.727,-0.123 2.588,-0.202 l -27.608,-48.978 47.361,13.217 14.55,25.813 c 0.699,-0.357 1.393,-0.723 2.082,-1.097 L -34.369,-8.369 -0.984,0.947 C -0.655,0.633 -0.326,0.318 0,0"
         style="fill:#3b9fa7;fill-opacity:1;fill-rule:evenodd;stroke:none"
         transform="matrix(1.3333333,0,0,-1.3333333,804.96613,324.4408)"
         clip-path="url(#clipPath38)" />
      <path
         id="path39"
         d="m 0,0 c 32.809,-14.726 57.087,-46.06 61.033,-84.405 3.946,-38.346 -13.442,-73.967 -42.564,-95.067 -32.81,14.727 -57.088,46.061 -61.034,84.406 C -46.511,-56.721 -29.121,-21.099 0,0"
         style="fill:#31848e;fill-opacity:1;fill-rule:evenodd;stroke:none"
         transform="matrix(1.3333333,0,0,-1.3333333,462.9596,61.444667)"
         clip-path="url(#clipPath40)" />
      <path
         id="path41"
         d="m 0,0 c 0.46,-0.206 0.917,-0.417 1.375,-0.63 l 3.928,-38.175 19.105,23.489 c 0.665,-0.559 1.324,-1.126 1.977,-1.701 L 5.68,-42.47 l 5.573,-54.155 39.28,48.292 c 0.431,-0.855 0.85,-1.715 1.257,-2.585 l -40.16,-49.372 6.002,-58.323 43.475,53.449 c -0.157,-1.625 -0.351,-3.24 -0.583,-4.846 l -42.514,-52.269 1.677,-16.295 c -0.405,-0.302 -0.809,-0.601 -1.218,-0.898 -0.461,0.207 -0.918,0.418 -1.376,0.631 l -1.676,16.296 -52.268,42.514 c -0.554,1.525 -1.074,3.067 -1.559,4.627 l 53.45,-43.476 -6.001,58.322 -49.374,40.16 c 0.221,0.934 0.458,1.862 0.703,2.787 L 8.66,-96.892 3.088,-42.737 -22.365,-22.034 c 0.52,0.696 1.05,1.385 1.588,2.067 L 2.712,-39.072 -1.217,-0.897 C -0.813,-0.596 -0.409,-0.296 0,0"
         style="fill:#40aab0;fill-opacity:1;fill-rule:evenodd;stroke:none"
         transform="matrix(1.3333333,0,0,-1.3333333,462.9596,61.444667)"
         clip-path="url(#clipPath42)" />
      <path
         id="path43"
         d="m 0,0 c 5.382,-35.557 -7.816,-72.934 -37.92,-97.013 -30.101,-24.079 -69.465,-28.745 -102.973,-15.685 -5.38,35.557 7.817,72.934 37.919,97.014 C -72.87,8.394 -33.508,13.06 0,0"
         style="fill:#31848e;fill-opacity:1;fill-rule:evenodd;stroke:none"
         transform="matrix(1.3333333,0,0,-1.3333333,732.45053,197.11853)"
         clip-path="url(#clipPath44)" />
      <path
         id="path45"
         d="m 0,0 c 0.075,-0.498 0.144,-0.998 0.213,-1.497 l -29.969,-23.972 30.094,-3.345 c -0.111,-0.863 -0.23,-1.723 -0.361,-2.582 l -32.608,3.626 -42.516,-34.006 61.871,-6.879 c -0.486,-0.824 -0.984,-1.643 -1.494,-2.456 l -63.253,7.033 -45.786,-36.624 68.477,-7.612 c -1.451,-0.749 -2.914,-1.459 -4.39,-2.134 l -66.964,7.445 -12.792,-10.233 c -0.472,0.176 -0.944,0.355 -1.415,0.538 -0.075,0.499 -0.145,0.998 -0.214,1.497 l 12.793,10.233 7.445,66.964 c 0.982,1.291 1.998,2.562 3.046,3.814 l -7.613,-68.477 45.786,36.624 7.032,63.253 c 0.905,0.32 1.812,0.625 2.723,0.918 l -6.878,-61.87 42.513,34.007 3.625,32.609 c 0.866,-0.062 1.733,-0.133 2.598,-0.216 L -31.383,-23.434 -1.414,0.538 C -0.942,0.361 -0.471,0.183 0,0"
         style="fill:#40aab0;fill-opacity:1;fill-rule:evenodd;stroke:none"
         transform="matrix(1.3333333,0,0,-1.3333333,732.45053,197.11853)"
         clip-path="url(#clipPath46)" />
      <path
         id="path47"
         d="m 0,0 c -13.699,-33.249 -44.262,-58.491 -82.467,-63.629 -38.204,-5.136 -74.349,11.137 -96.345,39.588 13.7,33.251 44.263,58.493 82.467,63.63 C -58.141,44.727 -21.996,28.453 0,0"
         style="fill:#31848e;fill-opacity:1;fill-rule:evenodd;stroke:none"
         transform="matrix(1.3333333,0,0,-1.3333333,820.12507,454.64973)"
         clip-path="url(#clipPath48)" />
      <path
         id="path49"
         d="m 0,0 c -0.192,-0.465 -0.389,-0.93 -0.587,-1.393 l -38.035,-5.114 24.071,-18.366 c -0.538,-0.681 -1.084,-1.356 -1.638,-2.026 l -26.086,19.902 -53.955,-7.254 49.491,-37.761 c -0.841,-0.456 -1.689,-0.902 -2.543,-1.335 l -50.599,38.603 -58.109,-7.812 54.776,-41.791 c -1.629,0.106 -3.249,0.251 -4.86,0.432 l -53.567,40.869 -16.236,-2.183 c -0.314,0.393 -0.625,0.789 -0.935,1.188 0.193,0.466 0.39,0.931 0.587,1.394 l 16.237,2.183 40.869,53.565 c 1.508,0.601 3.032,1.169 4.575,1.702 l -41.792,-54.777 58.107,7.814 38.606,50.598 c 0.938,-0.192 1.875,-0.398 2.806,-0.616 l -37.759,-49.491 53.956,7.254 19.9,26.084 c 0.711,-0.499 1.417,-1.006 2.116,-1.522 L -38.97,-3.925 -0.935,1.189 C -0.621,0.795 -0.31,0.4 0,0"
         style="fill:#40aab0;fill-opacity:1;fill-rule:evenodd;stroke:none"
         transform="matrix(1.3333333,0,0,-1.3333333,820.12507,454.64973)"
         clip-path="url(#clipPath50)" />
      <path
         id="path51"
         d="m 0,0 c -35.434,-6.135 -73.084,6.268 -97.796,35.852 -24.711,29.586 -30.212,68.841 -17.865,102.618 35.435,6.134 73.084,-6.268 97.796,-35.853 C 6.846,73.032 12.347,33.776 0,0"
         style="fill:#31848e;fill-opacity:1;fill-rule:evenodd;stroke:none"
         transform="matrix(1.3333333,0,0,-1.3333333,652.21747,717.52867)"
         clip-path="url(#clipPath52)" />
      <path
         id="path53"
         d="M 0,0 C -0.496,-0.085 -0.994,-0.167 -1.492,-0.246 L -26.094,29.208 -28.8,-0.949 c -0.864,0.092 -1.727,0.194 -2.588,0.306 l 2.933,32.678 -34.902,41.783 -5.564,-62.002 c -0.834,0.469 -1.663,0.949 -2.487,1.442 l 5.69,63.387 -37.587,45 -6.159,-68.625 c -0.779,1.436 -1.52,2.885 -2.225,4.345 l 6.023,67.107 -10.503,12.573 c 0.166,0.475 0.335,0.95 0.508,1.425 0.497,0.086 0.994,0.167 1.493,0.245 l 10.5,-12.572 67.107,-6.024 c 1.313,-0.953 2.605,-1.942 3.879,-2.963 l -68.624,6.159 37.588,-45 63.388,-5.688 C 0.009,71.73 0.332,70.828 0.646,69.925 l -62.003,5.563 34.901,-41.783 32.68,-2.932 C 6.181,29.905 6.127,29.038 6.062,28.172 L -24.093,30.878 0.509,1.425 C 0.342,0.949 0.174,0.474 0,0"
         style="fill:#40aab0;fill-opacity:1;fill-rule:evenodd;stroke:none"
         transform="matrix(1.3333333,0,0,-1.3333333,652.21747,717.52867)"
         clip-path="url(#clipPath54)" />
      <path
         id="path55"
         d="m 0,0 c -32.8,14.743 -57.064,46.089 -60.991,84.436 -3.925,38.348 13.484,73.959 42.615,95.044 C 14.426,164.737 38.689,133.391 42.615,95.044 46.54,56.695 29.132,21.083 0,0"
         style="fill:#31848e;fill-opacity:1;fill-rule:evenodd;stroke:none"
         transform="matrix(1.3333333,0,0,-1.3333333,428.60227,820.4948)"
         clip-path="url(#clipPath56)" />
      <path
         id="path57"
         d="m 0,0 c -0.461,0.206 -0.918,0.417 -1.375,0.631 l -3.908,38.178 -19.118,-23.48 c -0.664,0.559 -1.323,1.126 -1.974,1.701 l 20.716,25.444 -5.543,54.157 -39.306,-48.272 c -0.431,0.855 -0.849,1.715 -1.256,2.585 l 40.185,49.353 -5.97,58.325 -43.505,-53.427 c 0.158,1.625 0.354,3.24 0.588,4.846 l 42.54,52.247 -1.667,16.295 c 0.404,0.302 0.809,0.602 1.217,0.897 0.461,-0.208 0.919,-0.419 1.375,-0.63 l 1.669,-16.297 52.246,-42.542 c 0.553,-1.526 1.072,-3.067 1.555,-4.627 l -53.427,43.504 5.973,-58.327 49.351,-40.185 C 40.145,59.443 39.909,58.514 39.661,57.591 L -8.612,96.896 -3.065,42.738 22.376,22.021 c -0.52,-0.695 -1.05,-1.383 -1.588,-2.066 L -2.692,39.073 1.218,0.896 C 0.814,0.594 0.409,0.295 0,0"
         style="fill:#40aab0;fill-opacity:1;fill-rule:evenodd;stroke:none"
         transform="matrix(1.3333333,0,0,-1.3333333,428.60227,820.4948)"
         clip-path="url(#clipPath58)" />
      <path
         id="path59"
         d="m 0,0 c -9.684,34.634 -1.149,73.343 25.787,100.918 26.936,27.574 65.436,37.013 100.287,28.143 C 135.758,94.427 127.222,55.718 100.286,28.143 73.35,0.568 34.85,-8.871 0,0"
         style="fill:#31848e;fill-opacity:1;fill-rule:evenodd;stroke:none"
         transform="matrix(1.3333333,0,0,-1.3333333,179.11453,639.2148)"
         clip-path="url(#clipPath60)" />
      <path
         id="path61"
         d="M 0,0 C -0.135,0.485 -0.267,0.973 -0.396,1.459 L 26.421,28.911 -3.854,28.558 c 0.003,0.869 0.017,1.737 0.042,2.605 L 28.996,31.548 67.038,70.491 4.792,69.762 c 0.382,0.878 0.774,1.752 1.182,2.619 l 63.639,0.747 40.97,41.94 -68.894,-0.807 c 1.35,0.92 2.715,1.803 4.097,2.653 l 67.371,0.789 11.448,11.72 c 0.49,-0.118 0.979,-0.238 1.469,-0.362 0.135,-0.486 0.265,-0.972 0.394,-1.459 l -11.447,-11.72 0.79,-67.37 c -0.819,-1.403 -1.671,-2.788 -2.557,-4.158 l -0.807,68.893 -40.97,-41.94 0.744,-63.64 C 71.363,7.239 70.499,6.826 69.63,6.424 L 68.902,68.67 30.86,29.727 31.245,-3.081 C 30.376,-3.127 29.508,-3.161 28.64,-3.184 L 28.285,27.092 1.468,-0.36 C 0.978,-0.244 0.489,-0.124 0,0"
         style="fill:#40aab0;fill-opacity:1;fill-rule:evenodd;stroke:none"
         transform="matrix(1.3333333,0,0,-1.3333333,179.11453,639.2148)"
         clip-path="url(#clipPath62)" />
      <path
         id="path63"
         d="M 0,0 C 17.799,31.247 51.313,52.416 89.859,52.674 128.407,52.932 162.201,32.213 180.416,1.206 162.617,-30.043 129.103,-51.21 90.556,-51.47 52.009,-51.727 18.216,-31.009 0,0"
         style="fill:#31848e;fill-opacity:1;fill-rule:evenodd;stroke:none"
         transform="matrix(1.3333333,0,0,-1.3333333,59.654267,418.39653)"
         clip-path="url(#clipPath64)" />
      <path
         id="path65"
         d="M 0,0 C 0.25,0.437 0.504,0.872 0.759,1.307 L 39.135,1.563 17.583,22.829 c 0.62,0.609 1.247,1.21 1.882,1.804 L 42.819,1.587 97.259,1.952 52.949,45.676 c 0.891,0.344 1.788,0.681 2.692,1.002 l 45.302,-44.7 58.63,0.39 -49.043,48.393 c 1.603,-0.311 3.192,-0.66 4.768,-1.045 l 47.96,-47.322 16.381,0.11 c 0.261,-0.432 0.52,-0.864 0.777,-1.298 -0.251,-0.438 -0.504,-0.874 -0.76,-1.309 l -16.381,-0.108 -47.323,-47.961 c -1.57,-0.406 -3.155,-0.776 -4.754,-1.108 l 48.392,49.043 -58.63,-0.391 -44.7,-45.304 c -0.907,0.31 -1.809,0.634 -2.706,0.968 L 97.277,-0.653 42.836,-1.018 19.792,-24.373 c -0.642,0.586 -1.278,1.179 -1.905,1.779 L 39.152,-1.042 0.777,-1.3 C 0.515,-0.868 0.256,-0.436 0,0"
         style="fill:#40aab0;fill-opacity:1;fill-rule:evenodd;stroke:none"
         transform="matrix(1.3333333,0,0,-1.3333333,59.654267,418.39653)"
         clip-path="url(#clipPath66)" />
      <path
         id="path67"
         d="M 0,0 C 35.854,-2.788 69.285,-24.087 85.942,-58.85 102.6,-93.613 98.255,-133.014 77.963,-162.704 42.109,-159.917 8.68,-138.617 -7.979,-103.853 -24.635,-69.091 -20.291,-29.69 0,0"
         style="fill:#31848e;fill-opacity:1;fill-rule:evenodd;stroke:none"
         transform="matrix(1.3333333,0,0,-1.3333333,266.12693,112.58013)"
         clip-path="url(#clipPath68)" />
      <path
         id="path69"
         d="m 0,0 c 0.503,-0.039 1.005,-0.083 1.506,-0.129 l 16.585,-34.609 10.055,28.559 c 0.815,-0.301 1.626,-0.613 2.435,-0.934 L 19.683,-38.06 43.209,-87.156 63.884,-28.439 c 0.693,-0.66 1.378,-1.329 2.053,-2.01 l -21.137,-60.03 25.336,-52.874 22.883,64.988 c 0.4,-1.583 0.763,-3.17 1.087,-4.759 l -22.378,-63.552 7.079,-14.773 c -0.278,-0.42 -0.558,-0.839 -0.844,-1.255 -0.501,0.039 -1.004,0.083 -1.506,0.129 l -7.078,14.773 -63.552,22.377 c -1.036,1.249 -2.046,2.524 -3.03,3.828 l 64.989,-22.882 -25.335,52.875 -60.032,21.136 c -0.105,0.954 -0.198,1.907 -0.279,2.861 l 58.718,-20.675 -23.525,49.096 -30.948,10.897 c 0.255,0.83 0.52,1.658 0.797,2.481 L 15.74,-35.864 -0.842,-1.255 C -0.564,-0.835 -0.283,-0.415 0,0"
         style="fill:#40aab0;fill-opacity:1;fill-rule:evenodd;stroke:none"
         transform="matrix(1.3333333,0,0,-1.3333333,266.12693,112.58013)"
         clip-path="url(#clipPath70)" />
      <path
         id="path71"
         d="m 0,0 c 44.294,24.096 99.87,24.571 146,-3.593 46.132,-28.164 71.105,-77.816 69.911,-128.224 -44.294,-24.097 -99.871,-24.571 -146,3.592 C 23.779,-100.062 -1.193,-50.409 0,0"
         style="fill:#3b9fa7;fill-opacity:1;fill-rule:evenodd;stroke:none"
         transform="matrix(1.3333333,0,0,-1.3333333,163.58133,264.41867)"
         clip-path="url(#clipPath72)" />
      <path
         id="path73"
         d="m 0,0 c 0.622,0.338 1.246,0.67 1.871,0.999 l 45.926,-28.04 -9.978,41.264 c 1.188,0.268 2.38,0.521 3.574,0.759 l 10.813,-44.713 65.15,-39.777 -20.516,84.837 c 1.318,-0.248 2.635,-0.51 3.951,-0.794 l 20.975,-86.734 70.164,-42.839 -22.707,93.898 c 1.68,-1.555 3.318,-3.144 4.911,-4.767 l 22.205,-91.823 19.604,-11.967 c -0.007,-0.707 -0.016,-1.414 -0.032,-2.12 -0.621,-0.338 -1.246,-0.67 -1.871,-1 l -19.605,11.97 -91.822,-22.205 c -2.172,0.676 -4.332,1.405 -6.484,2.188 l 93.897,22.709 -70.164,42.837 -86.735,-20.975 c -0.855,1.038 -1.69,2.09 -2.51,3.15 l 84.836,20.517 -65.151,39.775 -44.714,-10.813 c -0.335,1.172 -0.653,2.348 -0.958,3.526 l 41.263,9.979 -45.926,28.038 C -0.026,-1.414 -0.016,-0.706 0,0"
         style="fill:#49babe;fill-opacity:1;fill-rule:evenodd;stroke:none"
         transform="matrix(1.3333333,0,0,-1.3333333,163.58133,264.41867)"
         clip-path="url(#clipPath74)" />
      <path
         id="path75"
         d="m 0,0 c -44.293,-24.096 -99.869,-24.57 -146.001,3.593 -46.13,28.164 -71.103,77.816 -69.908,128.226 44.293,24.095 99.87,24.571 146.001,-3.594 C -23.778,100.062 1.194,50.408 0,0"
         style="fill:#3b9fa7;fill-opacity:1;fill-rule:evenodd;stroke:none"
         transform="matrix(1.3333333,0,0,-1.3333333,739.3412,615.9336)"
         clip-path="url(#clipPath76)" />
      <path
         id="path77"
         d="m 0,0 c -0.621,-0.338 -1.245,-0.67 -1.871,-0.999 l -45.925,28.039 9.979,-41.262 c -1.188,-0.268 -2.38,-0.521 -3.575,-0.759 l -10.813,44.713 -65.15,39.777 20.516,-84.838 c -1.318,0.248 -2.637,0.51 -3.95,0.794 l -20.976,86.735 -70.164,42.837 22.707,-93.896 c -1.68,1.554 -3.316,3.143 -4.911,4.765 l -22.205,91.824 -19.605,11.968 c 0.008,0.707 0.016,1.414 0.034,2.121 0.621,0.336 1.245,0.67 1.871,0.997 l 19.604,-11.968 91.822,22.206 c 2.172,-0.678 4.332,-1.408 6.484,-2.192 l -93.896,-22.707 70.163,-42.837 86.735,20.976 c 0.854,-1.039 1.689,-2.091 2.512,-3.151 l -84.838,-20.517 65.151,-39.774 44.714,10.813 c 0.335,-1.171 0.653,-2.349 0.957,-3.528 L -45.892,30.158 0.033,2.12 C 0.027,1.414 0.018,0.707 0,0"
         style="fill:#49babe;fill-opacity:1;fill-rule:evenodd;stroke:none"
         transform="matrix(1.3333333,0,0,-1.3333333,739.3412,615.9336)"
         clip-path="url(#clipPath78)" />
      <path
         id="path79"
         d="m 0,0 c -24.096,44.292 -24.572,99.869 3.591,145.999 28.165,46.132 77.816,71.103 128.226,69.911 24.095,-44.294 24.571,-99.871 -3.593,-146.001 C 100.06,23.777 50.407,-1.194 0,0"
         style="fill:#3b9fa7;fill-opacity:1;fill-rule:evenodd;stroke:none"
         transform="matrix(1.3333333,0,0,-1.3333333,275.70573,728.05467)"
         clip-path="url(#clipPath80)" />
      <path
         id="path81"
         d="m 0,0 c -0.339,0.62 -0.67,1.244 -0.999,1.869 l 28.038,45.927 -41.263,-9.98 c -0.268,1.189 -0.521,2.38 -0.759,3.576 l 44.715,10.813 39.775,65.15 -84.838,-20.517 c 0.248,1.319 0.51,2.637 0.795,3.95 l 86.735,20.977 42.837,70.164 -93.897,-22.707 c 1.555,1.68 3.145,3.316 4.767,4.911 l 91.822,22.205 11.968,19.604 c 0.707,-0.007 1.414,-0.015 2.121,-0.032 0.338,-0.622 0.67,-1.246 0.997,-1.872 l -11.967,-19.604 22.206,-91.822 c -0.679,-2.172 -1.407,-4.332 -2.191,-6.484 L 118.154,190.025 75.317,119.861 96.293,33.125 c -1.04,-0.854 -2.091,-1.689 -3.152,-2.511 L 72.626,115.452 32.85,50.302 43.664,5.586 C 42.492,5.253 41.315,4.934 40.136,4.629 L 30.158,45.891 2.12,-0.034 C 1.412,-0.027 0.705,-0.018 0,0"
         style="fill:#49babe;fill-opacity:1;fill-rule:evenodd;stroke:none"
         transform="matrix(1.3333333,0,0,-1.3333333,275.70573,728.05467)"
         clip-path="url(#clipPath82)" />
      <path
         id="path83"
         d="m 0,0 c 24.095,-44.293 24.571,-99.87 -3.594,-146.001 -28.163,-46.13 -77.816,-71.103 -128.224,-69.909 -24.095,44.292 -24.571,99.87 3.592,146 C -100.063,-23.779 -50.409,1.193 0,0"
         style="fill:#3b9fa7;fill-opacity:1;fill-rule:evenodd;stroke:none"
         transform="matrix(1.3333333,0,0,-1.3333333,627.22,152.2956)"
         clip-path="url(#clipPath84)" />
      <path
         id="path85"
         d="m 0,0 c 0.337,-0.621 0.669,-1.246 0.998,-1.871 l -28.038,-45.926 41.263,9.979 c 0.267,-1.188 0.521,-2.38 0.758,-3.575 l -44.713,-10.813 -39.776,-65.15 84.836,20.516 c -0.246,-1.318 -0.509,-2.636 -0.794,-3.95 l -86.734,-20.976 -42.837,-70.163 93.896,22.707 c -1.554,-1.682 -3.144,-3.317 -4.766,-4.911 l -91.823,-22.205 -11.968,-19.606 c -0.707,0.008 -1.413,0.017 -2.12,0.034 -0.338,0.621 -0.67,1.246 -0.998,1.87 l 11.967,19.605 -22.205,91.822 c 0.677,2.171 1.407,4.333 2.191,6.484 l 22.708,-93.896 42.836,70.164 -20.976,86.734 c 1.04,0.854 2.092,1.69 3.152,2.511 l 20.515,-84.837 39.776,65.151 -10.813,44.715 c 1.172,0.334 2.348,0.652 3.527,0.957 L -30.159,-45.893 -2.12,0.033 C -1.413,0.026 -0.707,0.017 0,0"
         style="fill:#49babe;fill-opacity:1;fill-rule:evenodd;stroke:none"
         transform="matrix(1.3333333,0,0,-1.3333333,627.22,152.2956)"
         clip-path="url(#clipPath86)" />
      <path
         id="path87"
         d="m 0,0 c 41.06,-12.127 74.714,-45.209 85.5,-89.815 10.786,-44.605 -4.031,-89.411 -35.012,-118.957 -41.06,12.125 -74.713,45.208 -85.5,89.813 C -45.8,-74.353 -30.982,-29.549 0,0"
         style="fill:#46b5b9;fill-opacity:1;fill-rule:evenodd;stroke:none"
         transform="matrix(1.3333333,0,0,-1.3333333,384.14453,161.81187)"
         clip-path="url(#clipPath88)" />
      <path
         id="path89"
         d="m 0,0 c 0.576,-0.17 1.15,-0.346 1.723,-0.524 l 10.739,-44.407 18.782,30.764 c 0.875,-0.552 1.741,-1.115 2.602,-1.69 l -20.354,-33.338 15.236,-62.997 38.617,63.253 c 0.642,-0.939 1.275,-1.888 1.894,-2.848 l -39.48,-64.669 16.407,-67.845 42.741,70.008 c 0.074,-1.941 0.103,-3.879 0.086,-5.81 l -41.797,-68.461 4.586,-18.956 c -0.43,-0.42 -0.861,-0.839 -1.294,-1.252 -0.576,0.169 -1.15,0.344 -1.722,0.524 l -4.585,18.956 -68.461,41.797 c -0.896,1.71 -1.757,3.446 -2.578,5.207 l 70.008,-42.742 -16.406,67.845 -64.669,39.482 c 0.111,1.136 0.241,2.269 0.385,3.399 l 63.252,-38.617 -15.234,62.996 -33.339,20.354 c 0.503,0.904 1.016,1.801 1.542,2.693 L 9.447,-45.661 -1.293,-1.253 C -0.865,-0.833 -0.435,-0.415 0,0"
         style="fill:#6acdd3;fill-opacity:1;fill-rule:evenodd;stroke:none"
         transform="matrix(1.3333333,0,0,-1.3333333,384.14453,161.81187)"
         clip-path="url(#clipPath90)" />
      <path
         id="path91"
         d="m 0,0 c -41.061,12.126 -74.714,45.208 -85.5,89.813 -10.788,44.606 4.031,89.41 35.012,118.96 41.059,-12.128 74.713,-45.209 85.5,-89.815 C 45.8,74.352 30.981,29.548 0,0"
         style="fill:#46b5b9;fill-opacity:1;fill-rule:evenodd;stroke:none"
         transform="matrix(1.3333333,0,0,-1.3333333,518.78,718.53907)"
         clip-path="url(#clipPath92)" />
      <path
         id="path93"
         d="M 0,0 C -0.576,0.17 -1.15,0.345 -1.724,0.523 L -12.462,44.931 -31.244,14.166 c -0.875,0.552 -1.743,1.116 -2.603,1.69 l 20.353,33.338 -15.234,62.997 -38.617,-63.253 c -0.643,0.94 -1.277,1.888 -1.896,2.848 l 39.481,64.669 -16.406,67.844 -42.742,-70.007 c -0.074,1.94 -0.103,3.879 -0.087,5.81 l 41.799,68.46 -4.585,18.958 c 0.427,0.419 0.858,0.838 1.293,1.253 0.575,-0.171 1.149,-0.346 1.722,-0.525 l 4.584,-18.956 68.461,-41.796 c 0.897,-1.711 1.758,-3.446 2.578,-5.209 l -70.008,42.741 16.407,-67.844 64.669,-39.482 C 37.813,76.566 37.684,75.433 37.541,74.304 L -25.713,112.921 -10.479,49.924 22.86,29.569 c -0.503,-0.903 -1.017,-1.8 -1.542,-2.691 L -9.447,45.66 1.292,1.253 C 0.863,0.832 0.435,0.415 0,0"
         style="fill:#6acdd3;fill-opacity:1;fill-rule:evenodd;stroke:none"
         transform="matrix(1.3333333,0,0,-1.3333333,518.78,718.53907)"
         clip-path="url(#clipPath94)" />
      <path
         id="path95"
         d="M 0,0 C 12.126,41.06 45.208,74.712 89.816,85.5 134.42,96.286 179.225,81.468 208.773,50.488 196.646,9.428 163.565,-24.227 118.958,-35.013 74.354,-45.8 29.549,-30.982 0,0"
         style="fill:#54c6c8;fill-opacity:1;fill-rule:evenodd;stroke:none"
         transform="matrix(1.3333333,0,0,-1.3333333,173.0976,507.49213)"
         clip-path="url(#clipPath96)" />
      <path
         id="path97"
         d="M 0,0 C 0.171,0.574 0.346,1.149 0.525,1.723 L 44.932,12.462 14.167,31.244 c 0.552,0.875 1.115,1.741 1.69,2.602 L 49.196,13.492 112.192,28.728 48.939,67.343 c 0.939,0.644 1.887,1.277 2.848,1.896 l 64.669,-39.481 67.845,16.406 -70.009,42.743 c 1.942,0.074 3.879,0.103 5.81,0.086 l 68.461,-41.797 18.957,4.583 c 0.421,-0.427 0.838,-0.858 1.253,-1.291 -0.17,-0.576 -0.346,-1.152 -0.524,-1.724 l -18.956,-4.583 -41.797,-68.463 c -1.71,-0.895 -3.446,-1.755 -5.207,-2.576 l 42.74,70.006 -67.844,-16.406 -39.482,-64.668 c -1.136,0.112 -2.269,0.241 -3.399,0.384 L 112.921,25.712 49.925,10.477 29.57,-22.862 c -0.903,0.503 -1.801,1.017 -2.692,1.543 L 45.662,9.446 1.253,-1.293 C 0.833,-0.865 0.415,-0.436 0,0"
         style="fill:#75d1d7;fill-opacity:1;fill-rule:evenodd;stroke:none"
         transform="matrix(1.3333333,0,0,-1.3333333,173.0976,507.49213)"
         clip-path="url(#clipPath98)" />
      <path
         id="path99"
         d="m 0,0 c -12.127,-41.059 -45.208,-74.713 -89.813,-85.5 -44.608,-10.786 -89.412,4.031 -118.959,35.013 12.127,41.059 45.208,74.713 89.813,85.5 C -74.353,45.8 -29.548,30.982 0,0"
         style="fill:#54c6c8;fill-opacity:1;fill-rule:evenodd;stroke:none"
         transform="matrix(1.3333333,0,0,-1.3333333,729.82547,372.85933)"
         clip-path="url(#clipPath100)" />
      <path
         id="path101"
         d="m 0,0 c -0.171,-0.576 -0.346,-1.148 -0.524,-1.722 l -44.408,-10.739 30.766,-18.783 c -0.553,-0.874 -1.116,-1.742 -1.69,-2.601 l -33.339,20.352 -62.996,-15.233 63.253,-38.62 c -0.94,-0.64 -1.889,-1.275 -2.849,-1.893 l -64.668,39.481 -67.844,-16.408 70.007,-42.74 c -1.942,-0.076 -3.879,-0.105 -5.81,-0.087 l -68.46,41.797 -18.956,-4.585 c -0.422,0.429 -0.84,0.86 -1.254,1.294 0.17,0.576 0.344,1.149 0.524,1.721 l 18.956,4.586 41.797,68.461 c 1.71,0.897 3.445,1.756 5.207,2.577 l -42.74,-70.009 67.844,16.408 39.482,64.669 c 1.136,-0.112 2.268,-0.241 3.398,-0.384 l -38.617,-63.253 62.997,15.234 20.355,33.339 c 0.903,-0.503 1.801,-1.017 2.691,-1.543 L -45.661,-9.445 -1.252,1.294 C -0.833,0.865 -0.414,0.436 0,0"
         style="fill:#75d1d7;fill-opacity:1;fill-rule:evenodd;stroke:none"
         transform="matrix(1.3333333,0,0,-1.3333333,729.82547,372.85933)"
         clip-path="url(#clipPath102)" />
    </g>
  </g>
</svg>
